<svg width="18" height="18" viewBox="0 0 18 18" fill="none" xmlns="http://www.w3.org/2000/svg">
<g id="inst">
<mask id="mask0" mask-type="alpha" maskUnits="userSpaceOnUse" x="0" y="-1" width="18" height="19">
<path id="Clip 2" fill-rule="evenodd" clip-rule="evenodd" d="M0 -0.000244141H17.393V17.3927H0V-0.000244141Z" fill="white"/>
</mask>
<g mask="url(#mask0)">
<path id="Fill 1" fill-rule="evenodd" clip-rule="evenodd" d="M13.3384 5.09776C12.7624 5.09776 12.2954 4.63076 12.2954 4.05376C12.2954 3.47776 12.7624 3.01076 13.3384 3.01076C13.9144 3.01076 14.3824 3.47776 14.3824 4.05376C14.3824 4.63076 13.9144 5.09776 13.3384 5.09776ZM8.69639 12.2948C6.70939 12.2948 5.09839 10.6838 5.09839 8.69676C5.09839 6.70876 6.70939 5.09776 8.69639 5.09776C10.6844 5.09776 12.2954 6.70876 12.2954 8.69676C12.2954 10.6838 10.6844 12.2948 8.69639 12.2948ZM17.3414 5.11076C17.2984 4.18476 17.1514 3.55276 16.9364 2.99976C16.7144 2.42876 16.4164 1.94276 15.9334 1.45976C15.4504 0.975756 14.9654 0.678756 14.3934 0.456756C13.8404 0.241756 13.2074 0.0947559 12.2824 0.0527559C11.3554 0.00975586 11.0584 -0.000244141 8.69639 -0.000244141C6.33439 -0.000244141 6.03839 0.00975586 5.11039 0.0527559C4.18539 0.0947559 3.55339 0.241756 3.00039 0.456756C2.42839 0.678756 1.94239 0.975756 1.45939 1.45976C0.97639 1.94276 0.67939 2.42876 0.45639 2.99976C0.24139 3.55276 0.0943896 4.18476 0.0523896 5.11076C0.0103896 6.03876 -0.000610352 6.33476 -0.000610352 8.69676C-0.000610352 11.0578 0.0103896 11.3548 0.0523896 12.2828C0.0943896 13.2078 0.24139 13.8398 0.45639 14.3928C0.67939 14.9648 0.97639 15.4508 1.45939 15.9328C1.94239 16.4168 2.42839 16.7138 3.00039 16.9368C3.55339 17.1518 4.18539 17.2978 5.11039 17.3408C6.03839 17.3828 6.33439 17.3928 8.69639 17.3928C11.0584 17.3928 11.3554 17.3828 12.2824 17.3408C13.2074 17.2978 13.8404 17.1518 14.3934 16.9368C14.9654 16.7138 15.4504 16.4168 15.9334 15.9328C16.4164 15.4508 16.7144 14.9648 16.9364 14.3928C17.1514 13.8398 17.2984 13.2078 17.3414 12.2828C17.3834 11.3548 17.3934 11.0578 17.3934 8.69676C17.3934 6.33476 17.3834 6.03876 17.3414 5.11076Z" fill="white"/>
</g>
</g>
</svg>
