<svg width="18" height="14" viewBox="0 0 18 14" fill="none" xmlns="http://www.w3.org/2000/svg">
<g id="twitter">
<mask id="mask0" mask-type="alpha" maskUnits="userSpaceOnUse" x="0" y="0" width="18" height="14">
<path id="Clip 2" fill-rule="evenodd" clip-rule="evenodd" d="M0 0H17.0369V13.8456H0V0Z" fill="white"/>
</mask>
<g mask="url(#mask0)">
<path id="Fill 1" fill-rule="evenodd" clip-rule="evenodd" d="M17.0369 1.639C16.4109 1.917 15.7369 2.105 15.0299 2.189C15.7519 1.757 16.3069 1.072 16.5659 0.256C15.8909 0.657 15.1439 0.947 14.3459 1.103C13.7099 0.424 12.8009 0 11.7949 0C9.86588 0 8.30088 1.565 8.30088 3.495C8.30088 3.769 8.33088 4.035 8.39088 4.291C5.48588 4.145 2.91188 2.755 1.18588 0.639C0.885878 1.157 0.712878 1.757 0.712878 2.397C0.712878 3.609 1.32988 4.679 2.26788 5.306C1.69488 5.289 1.15588 5.13 0.683878 4.87V4.913C0.683878 6.607 1.88888 8.02 3.48888 8.34C3.19488 8.423 2.88688 8.464 2.56788 8.464C2.34288 8.464 2.12288 8.442 1.91088 8.401C2.35388 9.789 3.64488 10.801 5.17488 10.827C3.97888 11.765 2.47088 12.324 0.833878 12.324C0.551878 12.324 0.272878 12.308 -0.00012207 12.276C1.54688 13.266 3.38488 13.846 5.35788 13.846C11.7879 13.846 15.3029 8.52 15.3029 3.901C15.3029 3.749 15.2999 3.597 15.2939 3.449C15.9769 2.955 16.5699 2.34 17.0369 1.639Z" fill="white"/>
</g>
</g>
</svg>
